<svg width="91" height="93" viewBox="0 0 91 93" fill="none" xmlns="http://www.w3.org/2000/svg">
<path d="M91 6C91 3.23858 88.7568 0.976037 86.007 1.22993C81.1538 1.67804 76.3888 2.77797 71.8658 4.50154C65.7996 6.81326 60.2876 10.2016 55.6447 14.4731C51.0018 18.7446 47.3188 23.8156 44.806 29.3966C42.2933 34.9775 41 40.9592 41 47C41 53.0408 42.2933 59.0225 44.806 64.6034C47.3188 70.1844 51.0018 75.2554 55.6447 79.5269C60.2876 83.7984 65.7996 87.1867 71.8659 89.4985C76.3888 91.222 81.1538 92.322 86.007 92.7701C88.7568 93.024 91 90.7614 91 88V73.3217C91 70.5603 88.7397 68.3727 86.0329 67.8262C84.7019 67.5575 83.396 67.1807 82.131 66.6987C79.3192 65.6272 76.7644 64.0566 74.6123 62.0767C72.4602 60.0968 70.7531 57.7463 69.5884 55.1595C68.4237 52.5726 67.8242 49.8 67.8242 47C67.8242 44.2 68.4237 41.4274 69.5884 38.8405C70.7531 36.2537 72.4602 33.9032 74.6123 31.9233C76.7643 29.9434 79.3192 28.3728 82.131 27.3013C83.396 26.8193 84.7019 26.4425 86.0329 26.1738C88.7397 25.6273 91 23.4397 91 20.6783V6Z" fill="#1FBF2F" fill-opacity="0.2"/>
<path d="M91 6C91 3.23858 88.7568 0.976037 86.007 1.22993C81.1538 1.67804 76.3888 2.77797 71.8658 4.50154C65.7996 6.81326 60.2876 10.2016 55.6447 14.4731C51.0018 18.7446 47.3188 23.8156 44.806 29.3966C42.2933 34.9775 41 40.9592 41 47C41 53.0408 42.2933 59.0225 44.806 64.6034C47.3188 70.1844 51.0018 75.2554 55.6447 79.5269C60.2876 83.7984 65.7996 87.1867 71.8659 89.4985C76.3888 91.222 81.1538 92.322 86.007 92.7701C88.7568 93.024 91 90.7614 91 88V73.3217C91 70.5603 88.7397 68.3727 86.0329 67.8262C84.7019 67.5575 83.396 67.1807 82.131 66.6987C79.3192 65.6272 76.7644 64.0566 74.6123 62.0767C72.4602 60.0968 70.7531 57.7463 69.5884 55.1595C68.4237 52.5726 67.8242 49.8 67.8242 47C67.8242 44.2 68.4237 41.4274 69.5884 38.8405C70.7531 36.2537 72.4602 33.9032 74.6123 31.9233C76.7643 29.9434 79.3192 28.3728 82.131 27.3013C83.396 26.8193 84.7019 26.4425 86.0329 26.1738C88.7397 25.6273 91 23.4397 91 20.6783V6Z" fill="#18E776" fill-opacity="0.8"/>
<path d="M91 6C91 3.23858 88.7568 0.976037 86.007 1.22993C81.1538 1.67804 76.3888 2.77797 71.8658 4.50154C65.7996 6.81326 60.2876 10.2016 55.6447 14.4731C51.0018 18.7446 47.3188 23.8156 44.806 29.3966C42.2933 34.9775 41 40.9592 41 47C41 53.0408 42.2933 59.0225 44.806 64.6034C47.3188 70.1844 51.0018 75.2554 55.6447 79.5269C60.2876 83.7984 65.7996 87.1867 71.8659 89.4985C76.3888 91.222 81.1538 92.322 86.007 92.7701C88.7568 93.024 91 90.7614 91 88V73.3217C91 70.5603 88.7397 68.3727 86.0329 67.8262C84.7019 67.5575 83.396 67.1807 82.131 66.6987C79.3192 65.6272 76.7644 64.0566 74.6123 62.0767C72.4602 60.0968 70.7531 57.7463 69.5884 55.1595C68.4237 52.5726 67.8242 49.8 67.8242 47C67.8242 44.2 68.4237 41.4274 69.5884 38.8405C70.7531 36.2537 72.4602 33.9032 74.6123 31.9233C76.7643 29.9434 79.3192 28.3728 82.131 27.3013C83.396 26.8193 84.7019 26.4425 86.0329 26.1738C88.7397 25.6273 91 23.4397 91 20.6783V6Z" fill="#38CAA7" fill-opacity="0.2"/>
<path d="M14.1077 54C18.7265 46 30.2735 46 34.8923 54L46.5837 74.25C51.2025 82.25 45.429 92.25 36.1914 92.25H12.8087C3.57107 92.25 -2.20243 82.25 2.41637 74.25L14.1077 54Z" fill="#1FBF2F" fill-opacity="0.2"/>
<path d="M14.1077 54C18.7265 46 30.2735 46 34.8923 54L46.5837 74.25C51.2025 82.25 45.429 92.25 36.1914 92.25H12.8087C3.57107 92.25 -2.20243 82.25 2.41637 74.25L14.1077 54Z" fill="#18E776" fill-opacity="0.8"/>
<path d="M14.1077 54C18.7265 46 30.2735 46 34.8923 54L46.5837 74.25C51.2025 82.25 45.429 92.25 36.1914 92.25H12.8087C3.57107 92.25 -2.20243 82.25 2.41637 74.25L14.1077 54Z" fill="#38CAA7" fill-opacity="0.2"/>
<path d="M34.8923 39C30.2735 47 18.7265 47 14.1077 39L2.41637 18.75C-2.20243 10.75 3.57107 0.75 12.8087 0.75H36.1914C45.429 0.75 51.2025 10.75 46.5837 18.75L34.8923 39Z" fill="#1FBF2F" fill-opacity="0.2"/>
<path d="M34.8923 39C30.2735 47 18.7265 47 14.1077 39L2.41637 18.75C-2.20243 10.75 3.57107 0.75 12.8087 0.75H36.1914C45.429 0.75 51.2025 10.75 46.5837 18.75L34.8923 39Z" fill="#18E776" fill-opacity="0.8"/>
<path d="M34.8923 39C30.2735 47 18.7265 47 14.1077 39L2.41637 18.75C-2.20243 10.75 3.57107 0.75 12.8087 0.75H36.1914C45.429 0.75 51.2025 10.75 46.5837 18.75L34.8923 39Z" fill="#38CAA7" fill-opacity="0.2"/>
</svg>
