<svg width="60" height="60" viewBox="0 0 60 60" fill="none" xmlns="http://www.w3.org/2000/svg">
<path d="M24.4626 4.51408C25.7957 -1.38734 34.2043 -1.38734 35.5373 4.51408C36.4013 8.33879 40.7904 10.1568 44.1057 8.06322C49.2213 4.83289 55.1671 10.7787 51.9368 15.8942C49.8432 19.2096 51.6612 23.5987 55.4859 24.4626C61.3873 25.7957 61.3873 34.2043 55.4859 35.5373C51.6612 36.4013 49.8432 40.7904 51.9368 44.1057C55.1671 49.2213 49.2213 55.1671 44.1057 51.9368C40.7904 49.8432 36.4013 51.6612 35.5373 55.4859C34.2043 61.3873 25.7957 61.3873 24.4626 55.4859C23.5987 51.6612 19.2096 49.8432 15.8942 51.9368C10.7787 55.1671 4.83289 49.2213 8.06322 44.1057C10.1568 40.7904 8.33879 36.4013 4.51408 35.5373C-1.38734 34.2043 -1.38734 25.7957 4.51408 24.4626C8.33879 23.5987 10.1568 19.2096 8.06322 15.8942C4.83289 10.7787 10.7787 4.83289 15.8942 8.06322C19.2096 10.1568 23.5987 8.33879 24.4626 4.51408Z" fill="#1FBF2F" fill-opacity="0.2"/>
<path d="M24.4626 4.51408C25.7957 -1.38734 34.2043 -1.38734 35.5373 4.51408C36.4013 8.33879 40.7904 10.1568 44.1057 8.06322C49.2213 4.83289 55.1671 10.7787 51.9368 15.8942C49.8432 19.2096 51.6612 23.5987 55.4859 24.4626C61.3873 25.7957 61.3873 34.2043 55.4859 35.5373C51.6612 36.4013 49.8432 40.7904 51.9368 44.1057C55.1671 49.2213 49.2213 55.1671 44.1057 51.9368C40.7904 49.8432 36.4013 51.6612 35.5373 55.4859C34.2043 61.3873 25.7957 61.3873 24.4626 55.4859C23.5987 51.6612 19.2096 49.8432 15.8942 51.9368C10.7787 55.1671 4.83289 49.2213 8.06322 44.1057C10.1568 40.7904 8.33879 36.4013 4.51408 35.5373C-1.38734 34.2043 -1.38734 25.7957 4.51408 24.4626C8.33879 23.5987 10.1568 19.2096 8.06322 15.8942C4.83289 10.7787 10.7787 4.83289 15.8942 8.06322C19.2096 10.1568 23.5987 8.33879 24.4626 4.51408Z" fill="#19CF41" fill-opacity="0.8"/>
<path d="M24.4626 4.51408C25.7957 -1.38734 34.2043 -1.38734 35.5373 4.51408C36.4013 8.33879 40.7904 10.1568 44.1057 8.06322C49.2213 4.83289 55.1671 10.7787 51.9368 15.8942C49.8432 19.2096 51.6612 23.5987 55.4859 24.4626C61.3873 25.7957 61.3873 34.2043 55.4859 35.5373C51.6612 36.4013 49.8432 40.7904 51.9368 44.1057C55.1671 49.2213 49.2213 55.1671 44.1057 51.9368C40.7904 49.8432 36.4013 51.6612 35.5373 55.4859C34.2043 61.3873 25.7957 61.3873 24.4626 55.4859C23.5987 51.6612 19.2096 49.8432 15.8942 51.9368C10.7787 55.1671 4.83289 49.2213 8.06322 44.1057C10.1568 40.7904 8.33879 36.4013 4.51408 35.5373C-1.38734 34.2043 -1.38734 25.7957 4.51408 24.4626C8.33879 23.5987 10.1568 19.2096 8.06322 15.8942C4.83289 10.7787 10.7787 4.83289 15.8942 8.06322C19.2096 10.1568 23.5987 8.33879 24.4626 4.51408Z" fill="#38CAA7" fill-opacity="0.2"/>
<path d="M38.4213 20.3873C38.0688 20.1911 37.681 20.0664 37.2803 20.0202C36.8795 19.974 36.4735 20.0073 36.0856 20.1181C35.6977 20.2289 35.3355 20.4151 35.0196 20.666C34.7037 20.9169 34.4403 21.2276 34.2446 21.5804L28.5431 31.8409L25.2801 28.5779C24.9968 28.2846 24.6579 28.0506 24.2832 27.8897C23.9085 27.7287 23.5056 27.644 23.0978 27.6405C22.69 27.6369 22.2856 27.7146 21.9082 27.869C21.5307 28.0234 21.1879 28.2515 20.8995 28.5398C20.6111 28.8282 20.3831 29.1711 20.2287 29.5485C20.0743 29.9259 19.9966 30.3303 20.0001 30.7381C20.0037 31.1459 20.0884 31.5489 20.2493 31.9236C20.4103 32.2983 20.6442 32.6371 20.9376 32.9204L27.0798 39.0626C27.6602 39.6446 28.4433 39.964 29.251 39.964L29.6764 39.9333C30.1471 39.8674 30.5961 39.6932 30.9881 39.4244C31.38 39.1555 31.7042 38.7993 31.9352 38.3839L39.6129 24.564C39.8089 24.2115 39.9336 23.8239 39.9798 23.4232C40.026 23.0225 39.9928 22.6167 39.8822 22.2288C39.7715 21.841 39.5856 21.4787 39.3349 21.1628C39.0842 20.8468 38.7738 20.5833 38.4213 20.3873Z" fill="white"/>
</svg>
